<svg clip-rule="evenodd" fill-rule="evenodd" stroke-linejoin="round" stroke-miterlimit="2" viewBox="0 0 128 128" xmlns="http://www.w3.org/2000/svg" xmlns:xlink="http://www.w3.org/1999/xlink"><clipPath id="a"><path clip-rule="evenodd" d="m178 0h128v128h-128z"/></clipPath><g transform="translate(-178)"><path d="m178 0h128v128h-128z" fill="none"/><g clip-path="url(#a)"><path d="m49 5.375v26.25c0 2.415-2.689 4.375-6 4.375h-36c-3.311 0-6-1.96-6-4.375v-26.25c0-2.415 2.689-4.375 6-4.375h36c3.311 0 6 1.96 6 4.375z" fill="#0084d1" transform="matrix(2.666667 0 0 3.657143 175.333333 -3.657143)"/><path d="m260 15.385v9.23c0 4.076-3.865 7.385-8.625 7.385h-51.75c-4.76 0-8.625-3.309-8.625-7.385v-9.23c0-4.076 3.865-7.385 8.625-7.385h51.75c4.76 0 8.625 3.309 8.625 7.385z" fill="#b8e6fe" transform="matrix(.927536 0 0 1.083333 24.84058 -.666667)"/><path d="m255 20h24v12h-24z" fill="#b8e6fe" transform="matrix(3.333333 0 0 .833333 -656 7.333333)"/><path d="m292 8v24h-8c-8.831 0-16-7.169-16-16v-8z" fill="#0084d1" transform="matrix(.5 0 0 .5 132 16)"/><path d="m292 8h-24v24h8c8.831 0 16-7.169 16-16z" fill="#0084d1" transform="matrix(.5 0 0 .5 56 16)"/><path d="m49 4.182v28.636c0 1.756-1.536 3.182-3.429 3.182h-41.142c-1.893 0-3.429-1.426-3.429-3.182v-28.636c0-1.756 1.536-3.182 3.429-3.182h41.142c1.893 0 3.429 1.426 3.429 3.182z" fill="#b8e6fe" transform="matrix(2.333333 0 0 2.514286 183.666667 29.485714)"/><g fill="#0084d1" fill-rule="nonzero"><path d="m.3-.78c.086 0 .152.036.197.108.045.073.068.17.068.293s-.023.221-.068.293c-.045.073-.111.109-.197.109s-.152-.036-.197-.109c-.046-.072-.068-.17-.068-.293s.022-.22.068-.293c.045-.072.111-.108.197-.108zm-.148.563.262-.41c-.017-.031-.035-.051-.054-.062-.019-.01-.039-.016-.06-.016-.055 0-.096.031-.124.091-.029.06-.043.137-.043.23 0 .021.001.044.002.068.002.024.007.058.017.099zm.295-.32-.26.413c.014.024.03.042.048.053.018.012.038.018.061.018.062 0 .106-.034.132-.103.026-.07.039-.146.039-.231 0-.052-.007-.102-.02-.15z" transform="matrix(72 0 0 72 196.290547 103.263672)"/><path d="m.3-.78c.086 0 .152.036.197.108.045.073.068.17.068.293s-.023.221-.068.293c-.045.073-.111.109-.197.109s-.152-.036-.197-.109c-.046-.072-.068-.17-.068-.293s.022-.22.068-.293c.045-.072.111-.108.197-.108zm-.148.563.262-.41c-.017-.031-.035-.051-.054-.062-.019-.01-.039-.016-.06-.016-.055 0-.096.031-.124.091-.029.06-.043.137-.043.23 0 .021.001.044.002.068.002.024.007.058.017.099zm.295-.32-.26.413c.014.024.03.042.048.053.018.012.038.018.061.018.062 0 .106-.034.132-.103.026-.07.039-.146.039-.231 0-.052-.007-.102-.02-.15z" transform="matrix(72 0 0 72 244.537578 103.263672)"/></g></g></g></svg>