<svg height="72" viewBox="0 0 72 72" width="72" xmlns="http://www.w3.org/2000/svg"><g fill-rule="evenodd"><path d="m72 4.5v63c0 2.484375-2.015625 4.5-4.5 4.5h-63c-2.484375 0-4.5-2.015625-4.5-4.5v-63c0-2.484375 2.015625-4.5 4.5-4.5h63c2.484375 0 4.5 2.015625 4.5 4.5zm0 0" fill="#0084d1"/><path d="m49.5 9v5.625c0 2.484375-2.015625 4.5-4.5 4.5h-27c-2.484375 0-4.5-2.015625-4.5-4.5v-5.625c0-2.484375 2.015625-4.5 4.5-4.5h27c2.484375 0 4.5 2.015625 4.5 4.5zm0 0" fill="#b8e6fe"/><path d="m9 13.5h45v5.625h-45zm0 0" fill="#b8e6fe"/><path d="m56.25 11.25v6.75h-2.25c-2.484375 0-4.5-2.015625-4.5-4.5v-2.25zm0 0" fill="#0084d1"/><path d="m13.5 11.25h-6.75v6.75h2.25c2.484375 0 4.5-2.015625 4.5-4.5zm0 0" fill="#0084d1"/><path d="m67.5 22.5v40.5c0 2.484375-2.015625 4.5-4.5 4.5h-54c-2.484375 0-4.5-2.015625-4.5-4.5v-40.5c0-2.484375 2.015625-4.5 4.5-4.5h54c2.484375 0 4.5 2.015625 4.5 4.5zm0 0" fill="#b8e6fe"/></g></svg>
